<svg xmlns="http://www.w3.org/2000/svg" viewBox="0 0 960 960" aria-hidden="true">
  <path fill="#E5E5EA" d="M640,485L640,160L720,160L720,405L640,485ZM160,800L160,160L240,160L240,800L160,800ZM400,320L400,160L480,160L480,320L400,320ZM400,560L400,400L480,400L480,560L400,560ZM400,800L400,640L480,640L480,800L400,800ZM560,800L560,677L781,457Q790,448 801,444Q812,440 823,440Q835,440 846,444.5Q857,449 866,458L903,495Q911,504 915.5,515Q920,526 920,537Q920,548 916,559.5Q912,571 903,580L683,800L560,800ZM860,537L823,500L779,618L761,599L742,581L620,702L620,740L658,740Z"/>
</svg>
