<svg xmlns="http://www.w3.org/2000/svg" viewBox="0 0 521.03 113.76" aria-hidden="true">
  <path fill="#000" d="M0,88.66V5.76h13.93v34.54h21.19L64.02,5.76h15.54v3.34l-32.01,38.11,32.01,38.11v3.34h-15.54l-28.9-34.54H13.93v34.54H0Z"/>
  <path fill="#000" d="M98.85,86.53c-2.34-1.42-4.22-3.3-5.64-5.64-1.42-2.34-2.13-4.89-2.13-7.66v-35.92c0-2.76.71-5.31,2.13-7.66,1.42-2.34,3.3-4.22,5.64-5.64,2.34-1.42,4.89-2.13,7.66-2.13h36.96c2.84,0,5.43.69,7.77,2.07,2.34,1.38,4.2,3.24,5.58,5.58,1.38,2.34,2.07,4.93,2.07,7.77v24.87h-54.12v10.59c0,.62.21,1.13.63,1.55.42.42.94.63,1.55.63h51.93v13.7h-52.39c-2.76,0-5.32-.71-7.66-2.13ZM104.78,49.63h40.42v-11.86c0-.61-.21-1.13-.63-1.55-.42-.42-.94-.63-1.55-.63h-36.04c-.62,0-1.13.21-1.55.63s-.63.94-.63,1.55v11.86Z"/>
  <path fill="#000" d="M180.55,113.76v-13.82h40.65c.54,0,1.02-.21,1.44-.63.42-.42.63-.9.63-1.44v-9.21h-38.69c-2.84,0-5.41-.69-7.71-2.07-2.3-1.38-4.17-3.24-5.58-5.58-1.42-2.34-2.13-4.93-2.13-7.77V22.11h13.7v50.66c0,.62.21,1.13.63,1.55.42.42.94.63,1.55.63h36.16c.54,0,1.02-.21,1.44-.63s.63-.94.63-1.55V22.11h13.7v76.23c0,2.84-.67,5.43-2.01,7.77-1.34,2.34-3.19,4.2-5.53,5.58-2.34,1.38-4.93,2.07-7.77,2.07h-41.11Z"/>
  <path fill="#000" d="M265.18,88.66c-2.84,0-5.45-.69-7.83-2.07-2.38-1.38-4.26-3.26-5.64-5.64-1.38-2.38-2.07-4.99-2.07-7.83V21.3c0-2.84.69-5.45,2.07-7.83,1.38-2.38,3.26-4.26,5.64-5.64,2.38-1.38,4.99-2.07,7.83-2.07h67.13v13.93h-64.71c-1.23,0-2.23.37-2.99,1.09-.77.73-1.15,1.71-1.15,2.94v46.98c0,1.23.38,2.21,1.15,2.94.77.73,1.76,1.09,2.99,1.09h64.71v13.93h-67.13Z"/>
  <path fill="#000" d="M344.05,88.66V21.88h84.06c2.84,0,5.43.71,7.77,2.13,2.34,1.42,4.2,3.3,5.58,5.64,1.38,2.34,2.07,4.89,2.07,7.66v51.35h-13.7v-50.89c0-.61-.21-1.13-.63-1.55-.42-.42-.94-.63-1.55-.63h-24.76c-.54,0-1.02.21-1.44.63s-.63.94-.63,1.55v50.89h-13.93v-50.89c0-.61-.21-1.13-.63-1.55-.42-.42-.9-.63-1.44-.63h-24.87c-.54,0-1.02.21-1.44.63-.42.42-.63.94-.63,1.55v50.89h-13.82Z"/>
  <path fill="#000" d="M460.75,86.59c-2.34-1.38-4.2-3.24-5.58-5.58-1.38-2.34-2.07-4.93-2.07-7.77v-35.92c0-2.76.69-5.31,2.07-7.66,1.38-2.34,3.24-4.22,5.58-5.64,2.34-1.42,4.93-2.13,7.77-2.13h38.8V0h13.7v88.66h-52.5c-2.84,0-5.43-.69-7.77-2.07ZM469.1,74.96h36.04c.61,0,1.13-.21,1.55-.63s.63-.94.63-1.55v-35c0-.61-.21-1.13-.63-1.55-.42-.42-.94-.63-1.55-.63h-36.04c-.62,0-1.13.21-1.55.63s-.63.94-.63,1.55v35c0,.62.21,1.13.63,1.55.42.42.94.63,1.55.63Z"/>
</svg>
