<svg xmlns="http://www.w3.org/2000/svg" viewBox="0 0 606.67 150" aria-hidden="true">
  <path fill="#000" d="M53.18,106.78V23.88h13.93v34.54h21.19l28.9-34.54h15.54v3.34l-32.01,38.11,32.01,38.11v3.34h-15.54l-28.9-34.54h-21.19v34.54h-13.93Z"/>
  <path fill="#000" d="M152.04,104.65c-2.34-1.42-4.22-3.3-5.64-5.64-1.42-2.34-2.13-4.89-2.13-7.66v-35.93c0-2.76.71-5.31,2.13-7.66,1.42-2.34,3.3-4.22,5.64-5.64,2.34-1.42,4.89-2.13,7.66-2.13h36.96c2.84,0,5.43.69,7.77,2.07,2.34,1.38,4.2,3.24,5.58,5.58,1.38,2.34,2.07,4.93,2.07,7.77v24.87h-54.12v10.59c0,.62.21,1.13.63,1.55.42.42.94.63,1.55.63h51.93v13.7h-52.39c-2.76,0-5.32-.71-7.66-2.13ZM157.97,67.75h40.42v-11.86c0-.61-.21-1.13-.63-1.55-.42-.42-.94-.63-1.55-.63h-36.04c-.62,0-1.13.21-1.55.63s-.63.94-.63,1.55v11.86Z"/>
  <path fill="#000" d="M233.73,131.88v-13.82h40.65c.54,0,1.02-.21,1.44-.63.42-.42.63-.9.63-1.44v-9.21h-38.69c-2.84,0-5.41-.69-7.71-2.07s-4.17-3.24-5.58-5.58c-1.42-2.34-2.13-4.93-2.13-7.77v-51.12h13.7v50.66c0,.62.21,1.13.63,1.55.42.42.94.63,1.55.63h36.16c.54,0,1.02-.21,1.44-.63s.63-.94.63-1.55v-50.66h13.7v76.22c0,2.84-.67,5.43-2.01,7.77-1.34,2.34-3.19,4.2-5.53,5.58-2.34,1.38-4.93,2.07-7.77,2.07h-41.11Z"/>
  <path fill="#000" d="M302.82,106.78V23.88h15.77l31.09,37.08,30.97-37.08h15.89v82.9h-13.93v-63.56l-32.93,39.26-33.05-39.15v63.44h-13.82Z"/>
  <path fill="#000" d="M416.87,104.65c-2.34-1.42-4.22-3.3-5.64-5.64-1.42-2.34-2.13-4.89-2.13-7.66v-35.93c0-2.76.71-5.31,2.13-7.66,1.42-2.34,3.3-4.22,5.64-5.64,2.34-1.42,4.89-2.13,7.66-2.13h36.96c2.84,0,5.43.69,7.77,2.07,2.34,1.38,4.2,3.24,5.58,5.58,1.38,2.34,2.07,4.93,2.07,7.77v35.93c0,2.76-.69,5.32-2.07,7.66-1.38,2.34-3.24,4.22-5.58,5.64-2.34,1.42-4.93,2.13-7.77,2.13h-36.96c-2.76,0-5.32-.71-7.66-2.13ZM424.98,93.08h36.04c.61,0,1.13-.21,1.55-.63.42-.42.63-.94.63-1.55v-35c0-.61-.21-1.13-.63-1.55-.42-.42-.94-.63-1.55-.63h-36.04c-.62,0-1.13.21-1.55.63s-.63.94-.63,1.55v35c0,.62.21,1.13.63,1.55.42.42.94.63,1.55.63Z"/>
  <path fill="#000" d="M493.21,104.71c-2.34-1.38-4.2-3.24-5.58-5.58-1.38-2.34-2.07-4.93-2.07-7.77v-35.93c0-2.76.69-5.31,2.07-7.66,1.38-2.34,3.24-4.22,5.58-5.64,2.34-1.42,4.93-2.13,7.77-2.13h38.8v-21.88h13.7v88.66h-52.5c-2.84,0-5.43-.69-7.77-2.07ZM501.55,93.08h36.04c.61,0,1.13-.21,1.55-.63s.63-.94.63-1.55v-35c0-.61-.21-1.13-.63-1.55-.42-.42-.94-.63-1.55-.63h-36.04c-.62,0-1.13.21-1.55.63s-.63.94-.63,1.55v35c0,.62.21,1.13.63,1.55.42.42.94.63,1.55.63Z"/>
</svg>
